<?xml version="1.0" encoding="UTF-8" standalone="no"?>
<!DOCTYPE svg PUBLIC "-//W3C//DTD SVG 1.1//EN"
 "http://www.w3.org/Graphics/SVG/1.1/DTD/svg11.dtd">
<!-- Generated by graphviz version 2.40.1 (20161225.0304)
 -->
<!-- Title: controllers_diagram Pages: 1 -->
<svg width="642pt" height="607pt"
 viewBox="0.00 0.00 641.65 607.00" xmlns="http://www.w3.org/2000/svg" xmlns:xlink="http://www.w3.org/1999/xlink">
<g id="graph0" class="graph" transform="scale(1 1) rotate(0) translate(4 603)">
<title>controllers_diagram</title>
<polygon fill="transparent" stroke="transparent" points="-4,4 -4,-603 637.6484,-603 637.6484,4 -4,4"/>
<!-- _diagram_info -->
<g id="node1" class="node">
<title>_diagram_info</title>
<text text-anchor="start" x="248" y="-88.6" font-family="Times,serif" font-size="13.00" fill="#000000">Controllers diagram</text>
<text text-anchor="start" x="248" y="-75.6" font-family="Times,serif" font-size="13.00" fill="#000000">Date: Feb 14 2017 &#45; 22:37</text>
<text text-anchor="start" x="248" y="-62.6" font-family="Times,serif" font-size="13.00" fill="#000000">Migration version: 20170214190014</text>
<text text-anchor="start" x="248" y="-49.6" font-family="Times,serif" font-size="13.00" fill="#000000">Generated by RailRoady 1.5.2</text>
<text text-anchor="start" x="248" y="-36.6" font-family="Times,serif" font-size="13.00" fill="#000000">http://railroady.prestonlee.com</text>
</g>
<!-- AllPropertiesController -->
<g id="node2" class="node">
<title>AllPropertiesController</title>
<path fill="none" stroke="#000000" d="M492,-.5C492,-.5 616.2002,-.5 616.2002,-.5 622.2002,-.5 628.2002,-6.5 628.2002,-12.5 628.2002,-12.5 628.2002,-92.5 628.2002,-92.5 628.2002,-98.5 622.2002,-104.5 616.2002,-104.5 616.2002,-104.5 492,-104.5 492,-104.5 486,-104.5 480,-98.5 480,-92.5 480,-92.5 480,-12.5 480,-12.5 480,-6.5 486,-.5 492,-.5"/>
<text text-anchor="middle" x="554.1001" y="-89.3" font-family="Times,serif" font-size="14.00" fill="#000000">AllPropertiesController</text>
<polyline fill="none" stroke="#000000" points="480,-82.5 628.2002,-82.5 "/>
<text text-anchor="start" x="488" y="-67.3" font-family="Times,serif" font-size="14.00" fill="#000000">index</text>
<text text-anchor="start" x="488" y="-53.3" font-family="Times,serif" font-size="14.00" fill="#000000">show</text>
<polyline fill="none" stroke="#000000" points="480,-46.5 628.2002,-46.5 "/>
<polyline fill="none" stroke="#000000" points="480,-22.5 628.2002,-22.5 "/>
<text text-anchor="start" x="488" y="-7.3" font-family="Times,serif" font-size="14.00" fill="#000000">_layout</text>
</g>
<!-- ApplicationController -->
<g id="node3" class="node">
<title>ApplicationController</title>
<path fill="none" stroke="#000000" d="M147,-360.5C147,-360.5 314.7178,-360.5 314.7178,-360.5 320.7178,-360.5 326.7178,-366.5 326.7178,-372.5 326.7178,-372.5 326.7178,-438.5 326.7178,-438.5 326.7178,-444.5 320.7178,-450.5 314.7178,-450.5 314.7178,-450.5 147,-450.5 147,-450.5 141,-450.5 135,-444.5 135,-438.5 135,-438.5 135,-372.5 135,-372.5 135,-366.5 141,-360.5 147,-360.5"/>
<text text-anchor="middle" x="230.8589" y="-435.3" font-family="Times,serif" font-size="14.00" fill="#000000">ApplicationController</text>
<polyline fill="none" stroke="#000000" points="135,-428.5 326.7178,-428.5 "/>
<polyline fill="none" stroke="#000000" points="135,-404.5 326.7178,-404.5 "/>
<text text-anchor="start" x="143" y="-389.3" font-family="Times,serif" font-size="14.00" fill="#000000">configure_permitted_paramters</text>
<polyline fill="none" stroke="#000000" points="135,-382.5 326.7178,-382.5 "/>
<text text-anchor="start" x="143" y="-367.3" font-family="Times,serif" font-size="14.00" fill="#000000">_layout</text>
</g>
<!-- ConversationsController -->
<g id="node4" class="node">
<title>ConversationsController</title>
<path fill="none" stroke="#000000" d="M492,-480.5C492,-480.5 621.6484,-480.5 621.6484,-480.5 627.6484,-480.5 633.6484,-486.5 633.6484,-492.5 633.6484,-492.5 633.6484,-586.5 633.6484,-586.5 633.6484,-592.5 627.6484,-598.5 621.6484,-598.5 621.6484,-598.5 492,-598.5 492,-598.5 486,-598.5 480,-592.5 480,-586.5 480,-586.5 480,-492.5 480,-492.5 480,-486.5 486,-480.5 492,-480.5"/>
<text text-anchor="middle" x="556.8242" y="-583.3" font-family="Times,serif" font-size="14.00" fill="#000000">ConversationsController</text>
<polyline fill="none" stroke="#000000" points="480,-576.5 633.6484,-576.5 "/>
<text text-anchor="start" x="488" y="-561.3" font-family="Times,serif" font-size="14.00" fill="#000000">create</text>
<text text-anchor="start" x="488" y="-547.3" font-family="Times,serif" font-size="14.00" fill="#000000">index</text>
<polyline fill="none" stroke="#000000" points="480,-540.5 633.6484,-540.5 "/>
<polyline fill="none" stroke="#000000" points="480,-516.5 633.6484,-516.5 "/>
<text text-anchor="start" x="488" y="-501.3" font-family="Times,serif" font-size="14.00" fill="#000000">_layout</text>
<text text-anchor="start" x="488" y="-487.3" font-family="Times,serif" font-size="14.00" fill="#000000">conversation_params</text>
</g>
<!-- MessagesController -->
<g id="node5" class="node">
<title>MessagesController</title>
<path fill="none" stroke="#000000" d="M12,-195.5C12,-195.5 115.9795,-195.5 115.9795,-195.5 121.9795,-195.5 127.9795,-201.5 127.9795,-207.5 127.9795,-207.5 127.9795,-315.5 127.9795,-315.5 127.9795,-321.5 121.9795,-327.5 115.9795,-327.5 115.9795,-327.5 12,-327.5 12,-327.5 6,-327.5 0,-321.5 0,-315.5 0,-315.5 0,-207.5 0,-207.5 0,-201.5 6,-195.5 12,-195.5"/>
<text text-anchor="middle" x="63.9897" y="-312.3" font-family="Times,serif" font-size="14.00" fill="#000000">MessagesController</text>
<polyline fill="none" stroke="#000000" points="0,-305.5 127.9795,-305.5 "/>
<text text-anchor="start" x="8" y="-290.3" font-family="Times,serif" font-size="14.00" fill="#000000">create</text>
<text text-anchor="start" x="8" y="-276.3" font-family="Times,serif" font-size="14.00" fill="#000000">index</text>
<polyline fill="none" stroke="#000000" points="0,-269.5 127.9795,-269.5 "/>
<polyline fill="none" stroke="#000000" points="0,-245.5 127.9795,-245.5 "/>
<text text-anchor="start" x="8" y="-230.3" font-family="Times,serif" font-size="14.00" fill="#000000">_layout</text>
<text text-anchor="start" x="8" y="-216.3" font-family="Times,serif" font-size="14.00" fill="#000000">message_params</text>
<text text-anchor="start" x="8" y="-202.3" font-family="Times,serif" font-size="14.00" fill="#000000">set_conversation</text>
</g>
<!-- OmniauthCallbacksController -->
<g id="node6" class="node">
<title>OmniauthCallbacksController</title>
<path fill="none" stroke="#000000" d="M372,-360.5C372,-360.5 532.7451,-360.5 532.7451,-360.5 538.7451,-360.5 544.7451,-366.5 544.7451,-372.5 544.7451,-372.5 544.7451,-438.5 544.7451,-438.5 544.7451,-444.5 538.7451,-450.5 532.7451,-450.5 532.7451,-450.5 372,-450.5 372,-450.5 366,-450.5 360,-444.5 360,-438.5 360,-438.5 360,-372.5 360,-372.5 360,-366.5 366,-360.5 372,-360.5"/>
<text text-anchor="middle" x="452.3726" y="-435.3" font-family="Times,serif" font-size="14.00" fill="#000000">OmniauthCallbacksController</text>
<polyline fill="none" stroke="#000000" points="360,-428.5 544.7451,-428.5 "/>
<text text-anchor="start" x="368" y="-413.3" font-family="Times,serif" font-size="14.00" fill="#000000">facebook</text>
<polyline fill="none" stroke="#000000" points="360,-406.5 544.7451,-406.5 "/>
<polyline fill="none" stroke="#000000" points="360,-382.5 544.7451,-382.5 "/>
<text text-anchor="start" x="368" y="-367.3" font-family="Times,serif" font-size="14.00" fill="#000000">_layout</text>
</g>
<!-- PagesController -->
<g id="node7" class="node">
<title>PagesController</title>
<path fill="none" stroke="#000000" d="M177,-480.5C177,-480.5 259.207,-480.5 259.207,-480.5 265.207,-480.5 271.207,-486.5 271.207,-492.5 271.207,-492.5 271.207,-586.5 271.207,-586.5 271.207,-592.5 265.207,-598.5 259.207,-598.5 259.207,-598.5 177,-598.5 177,-598.5 171,-598.5 165,-592.5 165,-586.5 165,-586.5 165,-492.5 165,-492.5 165,-486.5 171,-480.5 177,-480.5"/>
<text text-anchor="middle" x="218.1035" y="-583.3" font-family="Times,serif" font-size="14.00" fill="#000000">PagesController</text>
<polyline fill="none" stroke="#000000" points="165,-576.5 271.207,-576.5 "/>
<text text-anchor="start" x="173" y="-561.3" font-family="Times,serif" font-size="14.00" fill="#000000">help</text>
<text text-anchor="start" x="173" y="-547.3" font-family="Times,serif" font-size="14.00" fill="#000000">home</text>
<text text-anchor="start" x="173" y="-533.3" font-family="Times,serif" font-size="14.00" fill="#000000">search</text>
<polyline fill="none" stroke="#000000" points="165,-526.5 271.207,-526.5 "/>
<polyline fill="none" stroke="#000000" points="165,-502.5 271.207,-502.5 "/>
<text text-anchor="start" x="173" y="-487.3" font-family="Times,serif" font-size="14.00" fill="#000000">_layout</text>
</g>
<!-- PhotosController -->
<g id="node8" class="node">
<title>PhotosController</title>
<path fill="none" stroke="#000000" d="M42,-480.5C42,-480.5 129.6689,-480.5 129.6689,-480.5 135.6689,-480.5 141.6689,-486.5 141.6689,-492.5 141.6689,-492.5 141.6689,-558.5 141.6689,-558.5 141.6689,-564.5 135.6689,-570.5 129.6689,-570.5 129.6689,-570.5 42,-570.5 42,-570.5 36,-570.5 30,-564.5 30,-558.5 30,-558.5 30,-492.5 30,-492.5 30,-486.5 36,-480.5 42,-480.5"/>
<text text-anchor="middle" x="85.8345" y="-555.3" font-family="Times,serif" font-size="14.00" fill="#000000">PhotosController</text>
<polyline fill="none" stroke="#000000" points="30,-548.5 141.6689,-548.5 "/>
<text text-anchor="start" x="38" y="-533.3" font-family="Times,serif" font-size="14.00" fill="#000000">destroy</text>
<polyline fill="none" stroke="#000000" points="30,-526.5 141.6689,-526.5 "/>
<polyline fill="none" stroke="#000000" points="30,-502.5 141.6689,-502.5 "/>
<text text-anchor="start" x="38" y="-487.3" font-family="Times,serif" font-size="14.00" fill="#000000">_layout</text>
</g>
<!-- PropertiesController -->
<g id="node9" class="node">
<title>PropertiesController</title>
<path fill="none" stroke="#000000" d="M357,-135.5C357,-135.5 463.3105,-135.5 463.3105,-135.5 469.3105,-135.5 475.3105,-141.5 475.3105,-147.5 475.3105,-147.5 475.3105,-311.5 475.3105,-311.5 475.3105,-317.5 469.3105,-323.5 463.3105,-323.5 463.3105,-323.5 357,-323.5 357,-323.5 351,-323.5 345,-317.5 345,-311.5 345,-311.5 345,-147.5 345,-147.5 345,-141.5 351,-135.5 357,-135.5"/>
<text text-anchor="middle" x="410.1553" y="-308.3" font-family="Times,serif" font-size="14.00" fill="#000000">PropertiesController</text>
<polyline fill="none" stroke="#000000" points="345,-301.5 475.3105,-301.5 "/>
<text text-anchor="start" x="353" y="-286.3" font-family="Times,serif" font-size="14.00" fill="#000000">create</text>
<text text-anchor="start" x="353" y="-272.3" font-family="Times,serif" font-size="14.00" fill="#000000">edit</text>
<text text-anchor="start" x="353" y="-258.3" font-family="Times,serif" font-size="14.00" fill="#000000">index</text>
<text text-anchor="start" x="353" y="-244.3" font-family="Times,serif" font-size="14.00" fill="#000000">new</text>
<text text-anchor="start" x="353" y="-230.3" font-family="Times,serif" font-size="14.00" fill="#000000">show</text>
<text text-anchor="start" x="353" y="-216.3" font-family="Times,serif" font-size="14.00" fill="#000000">update</text>
<polyline fill="none" stroke="#000000" points="345,-209.5 475.3105,-209.5 "/>
<polyline fill="none" stroke="#000000" points="345,-185.5 475.3105,-185.5 "/>
<text text-anchor="start" x="353" y="-170.3" font-family="Times,serif" font-size="14.00" fill="#000000">_layout</text>
<text text-anchor="start" x="353" y="-156.3" font-family="Times,serif" font-size="14.00" fill="#000000">property_params</text>
<text text-anchor="start" x="353" y="-142.3" font-family="Times,serif" font-size="14.00" fill="#000000">set_property</text>
</g>
<!-- RegistrationsController -->
<g id="node10" class="node">
<title>RegistrationsController</title>
<path fill="none" stroke="#000000" d="M312,-480.5C312,-480.5 435.4277,-480.5 435.4277,-480.5 441.4277,-480.5 447.4277,-486.5 447.4277,-492.5 447.4277,-492.5 447.4277,-558.5 447.4277,-558.5 447.4277,-564.5 441.4277,-570.5 435.4277,-570.5 435.4277,-570.5 312,-570.5 312,-570.5 306,-570.5 300,-564.5 300,-558.5 300,-558.5 300,-492.5 300,-492.5 300,-486.5 306,-480.5 312,-480.5"/>
<text text-anchor="middle" x="373.7139" y="-555.3" font-family="Times,serif" font-size="14.00" fill="#000000">RegistrationsController</text>
<polyline fill="none" stroke="#000000" points="300,-548.5 447.4277,-548.5 "/>
<polyline fill="none" stroke="#000000" points="300,-524.5 447.4277,-524.5 "/>
<text text-anchor="start" x="308" y="-509.3" font-family="Times,serif" font-size="14.00" fill="#000000">update_resource</text>
<polyline fill="none" stroke="#000000" points="300,-502.5 447.4277,-502.5 "/>
<text text-anchor="start" x="308" y="-487.3" font-family="Times,serif" font-size="14.00" fill="#000000">_layout</text>
</g>
<!-- ReservationsController -->
<g id="node11" class="node">
<title>ReservationsController</title>
<path fill="none" stroke="#000000" d="M177,-135.5C177,-135.5 298.8623,-135.5 298.8623,-135.5 304.8623,-135.5 310.8623,-141.5 310.8623,-147.5 310.8623,-147.5 310.8623,-311.5 310.8623,-311.5 310.8623,-317.5 304.8623,-323.5 298.8623,-323.5 298.8623,-323.5 177,-323.5 177,-323.5 171,-323.5 165,-317.5 165,-311.5 165,-311.5 165,-147.5 165,-147.5 165,-141.5 171,-135.5 177,-135.5"/>
<text text-anchor="middle" x="237.9312" y="-308.3" font-family="Times,serif" font-size="14.00" fill="#000000">ReservationsController</text>
<polyline fill="none" stroke="#000000" points="165,-301.5 310.8623,-301.5 "/>
<text text-anchor="start" x="173" y="-286.3" font-family="Times,serif" font-size="14.00" fill="#000000">create</text>
<text text-anchor="start" x="173" y="-272.3" font-family="Times,serif" font-size="14.00" fill="#000000">notify</text>
<text text-anchor="start" x="173" y="-258.3" font-family="Times,serif" font-size="14.00" fill="#000000">preload</text>
<text text-anchor="start" x="173" y="-244.3" font-family="Times,serif" font-size="14.00" fill="#000000">preview</text>
<text text-anchor="start" x="173" y="-230.3" font-family="Times,serif" font-size="14.00" fill="#000000">your_reservations</text>
<text text-anchor="start" x="173" y="-216.3" font-family="Times,serif" font-size="14.00" fill="#000000">your_trips</text>
<polyline fill="none" stroke="#000000" points="165,-209.5 310.8623,-209.5 "/>
<polyline fill="none" stroke="#000000" points="165,-185.5 310.8623,-185.5 "/>
<text text-anchor="start" x="173" y="-170.3" font-family="Times,serif" font-size="14.00" fill="#000000">_layout</text>
<text text-anchor="start" x="173" y="-156.3" font-family="Times,serif" font-size="14.00" fill="#000000">is_conflict</text>
<text text-anchor="start" x="173" y="-142.3" font-family="Times,serif" font-size="14.00" fill="#000000">reservation_params</text>
</g>
<!-- ReviewsController -->
<g id="node12" class="node">
<title>ReviewsController</title>
<path fill="none" stroke="#000000" d="M27,-45.5C27,-45.5 124.7588,-45.5 124.7588,-45.5 130.7588,-45.5 136.7588,-51.5 136.7588,-57.5 136.7588,-57.5 136.7588,-151.5 136.7588,-151.5 136.7588,-157.5 130.7588,-163.5 124.7588,-163.5 124.7588,-163.5 27,-163.5 27,-163.5 21,-163.5 15,-157.5 15,-151.5 15,-151.5 15,-57.5 15,-57.5 15,-51.5 21,-45.5 27,-45.5"/>
<text text-anchor="middle" x="75.8794" y="-148.3" font-family="Times,serif" font-size="14.00" fill="#000000">ReviewsController</text>
<polyline fill="none" stroke="#000000" points="15,-141.5 136.7588,-141.5 "/>
<text text-anchor="start" x="23" y="-126.3" font-family="Times,serif" font-size="14.00" fill="#000000">create</text>
<text text-anchor="start" x="23" y="-112.3" font-family="Times,serif" font-size="14.00" fill="#000000">destroy</text>
<polyline fill="none" stroke="#000000" points="15,-105.5 136.7588,-105.5 "/>
<polyline fill="none" stroke="#000000" points="15,-81.5 136.7588,-81.5 "/>
<text text-anchor="start" x="23" y="-66.3" font-family="Times,serif" font-size="14.00" fill="#000000">_layout</text>
<text text-anchor="start" x="23" y="-52.3" font-family="Times,serif" font-size="14.00" fill="#000000">review_params</text>
</g>
<!-- UsersController -->
<g id="node13" class="node">
<title>UsersController</title>
<path fill="none" stroke="#000000" d="M12,-360.5C12,-360.5 93.4277,-360.5 93.4277,-360.5 99.4277,-360.5 105.4277,-366.5 105.4277,-372.5 105.4277,-372.5 105.4277,-438.5 105.4277,-438.5 105.4277,-444.5 99.4277,-450.5 93.4277,-450.5 93.4277,-450.5 12,-450.5 12,-450.5 6,-450.5 0,-444.5 0,-438.5 0,-438.5 0,-372.5 0,-372.5 0,-366.5 6,-360.5 12,-360.5"/>
<text text-anchor="middle" x="52.7139" y="-435.3" font-family="Times,serif" font-size="14.00" fill="#000000">UsersController</text>
<polyline fill="none" stroke="#000000" points="0,-428.5 105.4277,-428.5 "/>
<text text-anchor="start" x="8" y="-413.3" font-family="Times,serif" font-size="14.00" fill="#000000">show</text>
<polyline fill="none" stroke="#000000" points="0,-406.5 105.4277,-406.5 "/>
<polyline fill="none" stroke="#000000" points="0,-382.5 105.4277,-382.5 "/>
<text text-anchor="start" x="8" y="-367.3" font-family="Times,serif" font-size="14.00" fill="#000000">_layout</text>
</g>
</g>
</svg>
