<?xml version="1.0" encoding="UTF-8" standalone="no"?>
<!DOCTYPE svg PUBLIC "-//W3C//DTD SVG 1.1//EN"
 "http://www.w3.org/Graphics/SVG/1.1/DTD/svg11.dtd">
<!-- Generated by graphviz version 2.40.1 (20161225.0304)
 -->
<!-- Title: models_diagram Pages: 1 -->
<svg width="568pt" height="225pt"
 viewBox="0.00 0.00 567.81 225.00" xmlns="http://www.w3.org/2000/svg" xmlns:xlink="http://www.w3.org/1999/xlink">
<g id="graph0" class="graph" transform="scale(1 1) rotate(0) translate(4 221)">
<title>models_diagram</title>
<polygon fill="transparent" stroke="transparent" points="-4,4 -4,-221 563.8086,-221 563.8086,4 -4,4"/>
<!-- _diagram_info -->
<g id="node1" class="node">
<title>_diagram_info</title>
<text text-anchor="start" x="8" y="-202.6" font-family="Times,serif" font-size="13.00" fill="#000000">Models diagram</text>
<text text-anchor="start" x="8" y="-189.6" font-family="Times,serif" font-size="13.00" fill="#000000">Date: Feb 14 2017 &#45; 22:37</text>
<text text-anchor="start" x="8" y="-176.6" font-family="Times,serif" font-size="13.00" fill="#000000">Migration version: 20170214190014</text>
<text text-anchor="start" x="8" y="-163.6" font-family="Times,serif" font-size="13.00" fill="#000000">Generated by RailRoady 1.5.2</text>
<text text-anchor="start" x="8" y="-150.6" font-family="Times,serif" font-size="13.00" fill="#000000">http://railroady.prestonlee.com</text>
</g>
<!-- Conversation -->
<g id="node2" class="node">
<title>Conversation</title>
<ellipse fill="none" stroke="#000000" cx="282.6877" cy="-180.5" rx="57.0305" ry="18"/>
<text text-anchor="middle" x="282.6877" y="-176.3" font-family="Times,serif" font-size="14.00" fill="#000000">Conversation</text>
</g>
<!-- Message -->
<g id="node3" class="node">
<title>Message</title>
<ellipse fill="none" stroke="#000000" cx="282.6877" cy="-90" rx="41.1007" ry="18"/>
<text text-anchor="middle" x="282.6877" y="-85.8" font-family="Times,serif" font-size="14.00" fill="#000000">Message</text>
</g>
<!-- Conversation&#45;&gt;Message -->
<g id="edge1" class="edge">
<title>Conversation&#45;&gt;Message</title>
<path fill="none" stroke="#b475a1" d="M282.6877,-153.9687C282.6877,-142.8402 282.6877,-129.878 282.6877,-118.5429"/>
<ellipse fill="none" stroke="#b475a1" cx="282.6878" cy="-158.186" rx="4" ry="4"/>
<polygon fill="#b475a1" stroke="#b475a1" points="282.6878,-118.2868 287.1877,-108.2867 282.6878,-113.2868 282.6877,-108.2868 282.6877,-108.2868 282.6877,-108.2868 282.6878,-113.2868 278.1877,-108.2868 282.6878,-118.2868 282.6878,-118.2868"/>
</g>
<!-- Photo -->
<g id="node4" class="node">
<title>Photo</title>
<ellipse fill="none" stroke="#000000" cx="436.6877" cy="-18" rx="30.9967" ry="18"/>
<text text-anchor="middle" x="436.6877" y="-13.8" font-family="Times,serif" font-size="14.00" fill="#000000">Photo</text>
</g>
<!-- Property -->
<g id="node5" class="node">
<title>Property</title>
<ellipse fill="none" stroke="#000000" cx="436.6877" cy="-90" rx="40.6248" ry="18"/>
<text text-anchor="middle" x="436.6877" y="-85.8" font-family="Times,serif" font-size="14.00" fill="#000000">Property</text>
</g>
<!-- Property&#45;&gt;Photo -->
<g id="edge2" class="edge">
<title>Property&#45;&gt;Photo</title>
<path fill="none" stroke="#5306ca" d="M436.6877,-63.8144C436.6877,-58.2775 436.6877,-52.4053 436.6877,-46.7785"/>
<ellipse fill="none" stroke="#5306ca" cx="436.6878" cy="-67.8314" rx="4" ry="4"/>
<polygon fill="#5306ca" stroke="#5306ca" points="436.6878,-46.4133 441.1877,-36.4132 436.6878,-41.4133 436.6877,-36.4133 436.6877,-36.4133 436.6877,-36.4133 436.6878,-41.4133 432.1877,-36.4133 436.6878,-46.4133 436.6878,-46.4133"/>
</g>
<!-- Reservation -->
<g id="node6" class="node">
<title>Reservation</title>
<ellipse fill="none" stroke="#000000" cx="335.6877" cy="-18" rx="52.1934" ry="18"/>
<text text-anchor="middle" x="335.6877" y="-13.8" font-family="Times,serif" font-size="14.00" fill="#000000">Reservation</text>
</g>
<!-- Property&#45;&gt;Reservation -->
<g id="edge3" class="edge">
<title>Property&#45;&gt;Reservation</title>
<path fill="none" stroke="#22008f" d="M407.8643,-69.4526C395.0517,-60.3188 379.9414,-49.5471 366.866,-40.2261"/>
<ellipse fill="none" stroke="#22008f" cx="411.5151" cy="-72.0552" rx="4" ry="4"/>
<polygon fill="#22008f" stroke="#22008f" points="366.7549,-40.1469 361.2243,-30.6779 362.6835,-37.2445 358.6121,-34.3421 358.6121,-34.3421 358.6121,-34.3421 362.6835,-37.2445 356,-38.0064 366.7549,-40.1469 366.7549,-40.1469"/>
</g>
<!-- Review -->
<g id="node7" class="node">
<title>Review</title>
<ellipse fill="none" stroke="#000000" cx="522.6877" cy="-18" rx="37.2421" ry="18"/>
<text text-anchor="middle" x="522.6877" y="-13.8" font-family="Times,serif" font-size="14.00" fill="#000000">Review</text>
</g>
<!-- Property&#45;&gt;Review -->
<g id="edge4" class="edge">
<title>Property&#45;&gt;Review</title>
<path fill="none" stroke="#5c8153" d="M462.108,-68.7179C472.7968,-59.7692 485.2363,-49.3547 496.0522,-40.2996"/>
<ellipse fill="none" stroke="#5c8153" cx="458.841" cy="-71.4531" rx="4" ry="4"/>
<polygon fill="#5c8153" stroke="#5c8153" points="496.2832,-40.1061 506.8395,-37.1372 500.117,-36.8964 503.9508,-33.6867 503.9508,-33.6867 503.9508,-33.6867 500.117,-36.8964 501.0621,-30.2363 496.2832,-40.1061 496.2832,-40.1061"/>
</g>
<!-- User -->
<g id="node8" class="node">
<title>User</title>
<ellipse fill="none" stroke="#000000" cx="436.6877" cy="-180.5" rx="27" ry="18"/>
<text text-anchor="middle" x="436.6877" y="-176.3" font-family="Times,serif" font-size="14.00" fill="#000000">User</text>
</g>
<!-- User&#45;&gt;Property -->
<g id="edge5" class="edge">
<title>User&#45;&gt;Property</title>
<path fill="none" stroke="#e10522" d="M436.6877,-153.9687C436.6877,-142.8402 436.6877,-129.878 436.6877,-118.5429"/>
<ellipse fill="none" stroke="#e10522" cx="436.6878" cy="-158.186" rx="4" ry="4"/>
<polygon fill="#e10522" stroke="#e10522" points="436.6878,-118.2868 441.1877,-108.2867 436.6878,-113.2868 436.6877,-108.2868 436.6877,-108.2868 436.6877,-108.2868 436.6878,-113.2868 432.1877,-108.2868 436.6878,-118.2868 436.6878,-118.2868"/>
</g>
<!-- User&#45;&gt;Reservation -->
<g id="edge6" class="edge">
<title>User&#45;&gt;Reservation</title>
<path fill="none" stroke="#b43fed" d="M420.0862,-157.5437C410.0914,-143.4543 397.2909,-124.9254 386.6877,-108 373.6159,-87.1339 359.9177,-62.8041 350.0133,-44.7053"/>
<ellipse fill="none" stroke="#b43fed" cx="422.4229" cy="-160.8205" rx="4" ry="4"/>
<polygon fill="#b43fed" stroke="#b43fed" points="349.9807,-44.6451 349.1564,-33.7102 347.5919,-40.2526 345.2032,-35.8601 345.2032,-35.8601 345.2032,-35.8601 347.5919,-40.2526 341.2499,-38.01 349.9807,-44.6451 349.9807,-44.6451"/>
</g>
<!-- User&#45;&gt;Review -->
<g id="edge7" class="edge">
<title>User&#45;&gt;Review</title>
<path fill="none" stroke="#b59ca0" d="M454.1284,-158.0307C464.4263,-144.1173 477.2508,-125.6022 486.6877,-108 497.4394,-87.9455 506.8766,-63.9679 513.3884,-45.8063"/>
<ellipse fill="none" stroke="#b59ca0" cx="451.7017" cy="-161.2669" rx="4" ry="4"/>
<polygon fill="#b59ca0" stroke="#b59ca0" points="513.4762,-45.5554 521.0302,-37.6063 515.1298,-40.8368 516.7834,-36.1181 516.7834,-36.1181 516.7834,-36.1181 515.1298,-40.8368 512.5366,-34.6299 513.4762,-45.5554 513.4762,-45.5554"/>
</g>
</g>
</svg>
