<?xml version="1.0" encoding="UTF-8" standalone="no"?>
<!DOCTYPE svg PUBLIC "-//W3C//DTD SVG 1.1//EN"
 "http://www.w3.org/Graphics/SVG/1.1/DTD/svg11.dtd">
<!-- Generated by graphviz version 2.40.1 (20161225.0304)
 -->
<!-- Title: models_diagram Pages: 1 -->
<svg width="782pt" height="1195pt"
 viewBox="0.00 0.00 782.19 1195.00" xmlns="http://www.w3.org/2000/svg" xmlns:xlink="http://www.w3.org/1999/xlink">
<g id="graph0" class="graph" transform="scale(1 1) rotate(0) translate(4 1191)">
<title>models_diagram</title>
<polygon fill="transparent" stroke="transparent" points="-4,4 -4,-1191 778.1931,-1191 778.1931,4 -4,4"/>
<!-- _diagram_info -->
<g id="node1" class="node">
<title>_diagram_info</title>
<text text-anchor="start" x="8" y="-1004.6" font-family="Times,serif" font-size="13.00" fill="#000000">Models diagram</text>
<text text-anchor="start" x="8" y="-991.6" font-family="Times,serif" font-size="13.00" fill="#000000">Date: Feb 14 2017 &#45; 22:37</text>
<text text-anchor="start" x="8" y="-978.6" font-family="Times,serif" font-size="13.00" fill="#000000">Migration version: 20170214190014</text>
<text text-anchor="start" x="8" y="-965.6" font-family="Times,serif" font-size="13.00" fill="#000000">Generated by RailRoady 1.5.2</text>
<text text-anchor="start" x="8" y="-952.6" font-family="Times,serif" font-size="13.00" fill="#000000">http://railroady.prestonlee.com</text>
</g>
<!-- Conversation -->
<g id="node2" class="node">
<title>Conversation</title>
<path fill="none" stroke="#000000" d="M237.1824,-932.5C237.1824,-932.5 346.1931,-932.5 346.1931,-932.5 352.1931,-932.5 358.1931,-938.5 358.1931,-944.5 358.1931,-944.5 358.1931,-1020.5 358.1931,-1020.5 358.1931,-1026.5 352.1931,-1032.5 346.1931,-1032.5 346.1931,-1032.5 237.1824,-1032.5 237.1824,-1032.5 231.1824,-1032.5 225.1824,-1026.5 225.1824,-1020.5 225.1824,-1020.5 225.1824,-944.5 225.1824,-944.5 225.1824,-938.5 231.1824,-932.5 237.1824,-932.5"/>
<text text-anchor="middle" x="291.6877" y="-1017.3" font-family="Times,serif" font-size="14.00" fill="#000000">Conversation</text>
<polyline fill="none" stroke="#000000" points="225.1824,-1010.5 358.1931,-1010.5 "/>
<text text-anchor="start" x="233.1824" y="-995.3" font-family="Times,serif" font-size="14.00" fill="#000000">id :INTEGER</text>
<text text-anchor="start" x="233.1824" y="-981.3" font-family="Times,serif" font-size="14.00" fill="#000000">sender_id :integer</text>
<text text-anchor="start" x="233.1824" y="-967.3" font-family="Times,serif" font-size="14.00" fill="#000000">recipient_id :integer</text>
<text text-anchor="start" x="233.1824" y="-953.3" font-family="Times,serif" font-size="14.00" fill="#000000">created_at :datetime</text>
<text text-anchor="start" x="233.1824" y="-939.3" font-family="Times,serif" font-size="14.00" fill="#000000">updated_at :datetime</text>
</g>
<!-- Message -->
<g id="node3" class="node">
<title>Message</title>
<path fill="none" stroke="#000000" d="M227.8479,-417.5C227.8479,-417.5 355.5276,-417.5 355.5276,-417.5 361.5276,-417.5 367.5276,-423.5 367.5276,-429.5 367.5276,-429.5 367.5276,-519.5 367.5276,-519.5 367.5276,-525.5 361.5276,-531.5 355.5276,-531.5 355.5276,-531.5 227.8479,-531.5 227.8479,-531.5 221.8479,-531.5 215.8479,-525.5 215.8479,-519.5 215.8479,-519.5 215.8479,-429.5 215.8479,-429.5 215.8479,-423.5 221.8479,-417.5 227.8479,-417.5"/>
<text text-anchor="middle" x="291.6877" y="-516.3" font-family="Times,serif" font-size="14.00" fill="#000000">Message</text>
<polyline fill="none" stroke="#000000" points="215.8479,-509.5 367.5276,-509.5 "/>
<text text-anchor="start" x="223.8479" y="-494.3" font-family="Times,serif" font-size="14.00" fill="#000000">id :INTEGER</text>
<text text-anchor="start" x="223.8479" y="-480.3" font-family="Times,serif" font-size="14.00" fill="#000000">content :text</text>
<text text-anchor="start" x="223.8479" y="-466.3" font-family="Times,serif" font-size="14.00" fill="#000000">conversation_id :integer</text>
<text text-anchor="start" x="223.8479" y="-452.3" font-family="Times,serif" font-size="14.00" fill="#000000">user_id :integer</text>
<text text-anchor="start" x="223.8479" y="-438.3" font-family="Times,serif" font-size="14.00" fill="#000000">created_at :datetime</text>
<text text-anchor="start" x="223.8479" y="-424.3" font-family="Times,serif" font-size="14.00" fill="#000000">updated_at :datetime</text>
</g>
<!-- Conversation&#45;&gt;Message -->
<g id="edge1" class="edge">
<title>Conversation&#45;&gt;Message</title>
<path fill="none" stroke="#288a0e" d="M291.6877,-924.3643C291.6877,-829.4924 291.6877,-641.9213 291.6877,-541.5651"/>
<ellipse fill="none" stroke="#288a0e" cx="291.6878" cy="-928.4007" rx="4" ry="4"/>
<polygon fill="#288a0e" stroke="#288a0e" points="291.6878,-541.5412 296.1877,-531.5412 291.6878,-536.5412 291.6877,-531.5412 291.6877,-531.5412 291.6877,-531.5412 291.6878,-536.5412 287.1877,-531.5413 291.6878,-541.5412 291.6878,-541.5412"/>
</g>
<!-- Photo -->
<g id="node4" class="node">
<title>Photo</title>
<path fill="none" stroke="#000000" d="M456.2512,-14.5C456.2512,-14.5 611.1243,-14.5 611.1243,-14.5 617.1243,-14.5 623.1243,-20.5 623.1243,-26.5 623.1243,-26.5 623.1243,-144.5 623.1243,-144.5 623.1243,-150.5 617.1243,-156.5 611.1243,-156.5 611.1243,-156.5 456.2512,-156.5 456.2512,-156.5 450.2512,-156.5 444.2512,-150.5 444.2512,-144.5 444.2512,-144.5 444.2512,-26.5 444.2512,-26.5 444.2512,-20.5 450.2512,-14.5 456.2512,-14.5"/>
<text text-anchor="middle" x="533.6877" y="-141.3" font-family="Times,serif" font-size="14.00" fill="#000000">Photo</text>
<polyline fill="none" stroke="#000000" points="444.2512,-134.5 623.1243,-134.5 "/>
<text text-anchor="start" x="452.2512" y="-119.3" font-family="Times,serif" font-size="14.00" fill="#000000">image_updated_at :datetime</text>
<text text-anchor="start" x="452.2512" y="-105.3" font-family="Times,serif" font-size="14.00" fill="#000000">property_id :integer</text>
<text text-anchor="start" x="452.2512" y="-91.3" font-family="Times,serif" font-size="14.00" fill="#000000">created_at :datetime</text>
<text text-anchor="start" x="452.2512" y="-77.3" font-family="Times,serif" font-size="14.00" fill="#000000">updated_at :datetime</text>
<text text-anchor="start" x="452.2512" y="-63.3" font-family="Times,serif" font-size="14.00" fill="#000000">image_file_name :varchar</text>
<text text-anchor="start" x="452.2512" y="-49.3" font-family="Times,serif" font-size="14.00" fill="#000000">image_content_type :varchar</text>
<text text-anchor="start" x="452.2512" y="-35.3" font-family="Times,serif" font-size="14.00" fill="#000000">image_file_size :integer</text>
<text text-anchor="start" x="452.2512" y="-21.3" font-family="Times,serif" font-size="14.00" fill="#000000">id :INTEGER</text>
</g>
<!-- Property -->
<g id="node5" class="node">
<title>Property</title>
<path fill="none" stroke="#000000" d="M471.7825,-207.5C471.7825,-207.5 595.593,-207.5 595.593,-207.5 601.593,-207.5 607.593,-213.5 607.593,-219.5 607.593,-219.5 607.593,-729.5 607.593,-729.5 607.593,-735.5 601.593,-741.5 595.593,-741.5 595.593,-741.5 471.7825,-741.5 471.7825,-741.5 465.7825,-741.5 459.7825,-735.5 459.7825,-729.5 459.7825,-729.5 459.7825,-219.5 459.7825,-219.5 459.7825,-213.5 465.7825,-207.5 471.7825,-207.5"/>
<text text-anchor="middle" x="533.6877" y="-726.3" font-family="Times,serif" font-size="14.00" fill="#000000">Property</text>
<polyline fill="none" stroke="#000000" points="459.7825,-719.5 607.593,-719.5 "/>
<text text-anchor="start" x="467.7825" y="-704.3" font-family="Times,serif" font-size="14.00" fill="#000000">min_time :integer</text>
<text text-anchor="start" x="467.7825" y="-690.3" font-family="Times,serif" font-size="14.00" fill="#000000">accommodate :integer</text>
<text text-anchor="start" x="467.7825" y="-676.3" font-family="Times,serif" font-size="14.00" fill="#000000">listing_name :varchar</text>
<text text-anchor="start" x="467.7825" y="-662.3" font-family="Times,serif" font-size="14.00" fill="#000000">summary :text</text>
<text text-anchor="start" x="467.7825" y="-648.3" font-family="Times,serif" font-size="14.00" fill="#000000">address :varchar</text>
<text text-anchor="start" x="467.7825" y="-634.3" font-family="Times,serif" font-size="14.00" fill="#000000">price :integer</text>
<text text-anchor="start" x="467.7825" y="-620.3" font-family="Times,serif" font-size="14.00" fill="#000000">active :boolean</text>
<text text-anchor="start" x="467.7825" y="-606.3" font-family="Times,serif" font-size="14.00" fill="#000000">user_id :integer</text>
<text text-anchor="start" x="467.7825" y="-592.3" font-family="Times,serif" font-size="14.00" fill="#000000">created_at :datetime</text>
<text text-anchor="start" x="467.7825" y="-578.3" font-family="Times,serif" font-size="14.00" fill="#000000">updated_at :datetime</text>
<text text-anchor="start" x="467.7825" y="-564.3" font-family="Times,serif" font-size="14.00" fill="#000000">latitude :float</text>
<text text-anchor="start" x="467.7825" y="-550.3" font-family="Times,serif" font-size="14.00" fill="#000000">longitude :float</text>
<text text-anchor="start" x="467.7825" y="-536.3" font-family="Times,serif" font-size="14.00" fill="#000000">space_type :varchar</text>
<text text-anchor="start" x="467.7825" y="-522.3" font-family="Times,serif" font-size="14.00" fill="#000000">category :varchar</text>
<text text-anchor="start" x="467.7825" y="-508.3" font-family="Times,serif" font-size="14.00" fill="#000000">flatness :varchar</text>
<text text-anchor="start" x="467.7825" y="-494.3" font-family="Times,serif" font-size="14.00" fill="#000000">dimensions :float</text>
<text text-anchor="start" x="467.7825" y="-480.3" font-family="Times,serif" font-size="14.00" fill="#000000">ground_type :varchar</text>
<text text-anchor="start" x="467.7825" y="-466.3" font-family="Times,serif" font-size="14.00" fill="#000000">charge_per :varchar</text>
<text text-anchor="start" x="467.7825" y="-452.3" font-family="Times,serif" font-size="14.00" fill="#000000">power_supply :boolean</text>
<text text-anchor="start" x="467.7825" y="-438.3" font-family="Times,serif" font-size="14.00" fill="#000000">water_supply :boolean</text>
<text text-anchor="start" x="467.7825" y="-424.3" font-family="Times,serif" font-size="14.00" fill="#000000">animals :boolean</text>
<text text-anchor="start" x="467.7825" y="-410.3" font-family="Times,serif" font-size="14.00" fill="#000000">vehicles :boolean</text>
<text text-anchor="start" x="467.7825" y="-396.3" font-family="Times,serif" font-size="14.00" fill="#000000">drilling :boolean</text>
<text text-anchor="start" x="467.7825" y="-382.3" font-family="Times,serif" font-size="14.00" fill="#000000">water_system :boolean</text>
<text text-anchor="start" x="467.7825" y="-368.3" font-family="Times,serif" font-size="14.00" fill="#000000">tools :boolean</text>
<text text-anchor="start" x="467.7825" y="-354.3" font-family="Times,serif" font-size="14.00" fill="#000000">pools_lakes :boolean</text>
<text text-anchor="start" x="467.7825" y="-340.3" font-family="Times,serif" font-size="14.00" fill="#000000">constructions :boolean</text>
<text text-anchor="start" x="467.7825" y="-326.3" font-family="Times,serif" font-size="14.00" fill="#000000">anti_fire :boolean</text>
<text text-anchor="start" x="467.7825" y="-312.3" font-family="Times,serif" font-size="14.00" fill="#000000">lightning :boolean</text>
<text text-anchor="start" x="467.7825" y="-298.3" font-family="Times,serif" font-size="14.00" fill="#000000">alarm_system :boolean</text>
<text text-anchor="start" x="467.7825" y="-284.3" font-family="Times,serif" font-size="14.00" fill="#000000">cctv :boolean</text>
<text text-anchor="start" x="467.7825" y="-270.3" font-family="Times,serif" font-size="14.00" fill="#000000">solar_panels :boolean</text>
<text text-anchor="start" x="467.7825" y="-256.3" font-family="Times,serif" font-size="14.00" fill="#000000">wind_turbines :boolean</text>
<text text-anchor="start" x="467.7825" y="-242.3" font-family="Times,serif" font-size="14.00" fill="#000000">fenced :boolean</text>
<text text-anchor="start" x="467.7825" y="-228.3" font-family="Times,serif" font-size="14.00" fill="#000000">buildings :boolean</text>
<text text-anchor="start" x="467.7825" y="-214.3" font-family="Times,serif" font-size="14.00" fill="#000000">id :INTEGER</text>
</g>
<!-- Property&#45;&gt;Photo -->
<g id="edge2" class="edge">
<title>Property&#45;&gt;Photo</title>
<path fill="none" stroke="#eac56c" d="M533.6877,-199.2425C533.6877,-187.8612 533.6877,-176.9285 533.6877,-166.6451"/>
<ellipse fill="none" stroke="#eac56c" cx="533.6878" cy="-203.2483" rx="4" ry="4"/>
<polygon fill="#eac56c" stroke="#eac56c" points="533.6878,-166.5856 538.1877,-156.5856 533.6878,-161.5856 533.6877,-156.5856 533.6877,-156.5856 533.6877,-156.5856 533.6878,-161.5856 529.1877,-156.5857 533.6878,-166.5856 533.6878,-166.5856"/>
</g>
<!-- Reservation -->
<g id="node6" class="node">
<title>Reservation</title>
<path fill="none" stroke="#000000" d="M305.1824,-.5C305.1824,-.5 414.1931,-.5 414.1931,-.5 420.1931,-.5 426.1931,-6.5 426.1931,-12.5 426.1931,-12.5 426.1931,-158.5 426.1931,-158.5 426.1931,-164.5 420.1931,-170.5 414.1931,-170.5 414.1931,-170.5 305.1824,-170.5 305.1824,-170.5 299.1824,-170.5 293.1824,-164.5 293.1824,-158.5 293.1824,-158.5 293.1824,-12.5 293.1824,-12.5 293.1824,-6.5 299.1824,-.5 305.1824,-.5"/>
<text text-anchor="middle" x="359.6877" y="-155.3" font-family="Times,serif" font-size="14.00" fill="#000000">Reservation</text>
<polyline fill="none" stroke="#000000" points="293.1824,-148.5 426.1931,-148.5 "/>
<text text-anchor="start" x="301.1824" y="-133.3" font-family="Times,serif" font-size="14.00" fill="#000000">status :boolean</text>
<text text-anchor="start" x="301.1824" y="-119.3" font-family="Times,serif" font-size="14.00" fill="#000000">user_id :integer</text>
<text text-anchor="start" x="301.1824" y="-105.3" font-family="Times,serif" font-size="14.00" fill="#000000">property_id :integer</text>
<text text-anchor="start" x="301.1824" y="-91.3" font-family="Times,serif" font-size="14.00" fill="#000000">start_date :datetime</text>
<text text-anchor="start" x="301.1824" y="-77.3" font-family="Times,serif" font-size="14.00" fill="#000000">end_date :datetime</text>
<text text-anchor="start" x="301.1824" y="-63.3" font-family="Times,serif" font-size="14.00" fill="#000000">price :integer</text>
<text text-anchor="start" x="301.1824" y="-49.3" font-family="Times,serif" font-size="14.00" fill="#000000">total :integer</text>
<text text-anchor="start" x="301.1824" y="-35.3" font-family="Times,serif" font-size="14.00" fill="#000000">created_at :datetime</text>
<text text-anchor="start" x="301.1824" y="-21.3" font-family="Times,serif" font-size="14.00" fill="#000000">updated_at :datetime</text>
<text text-anchor="start" x="301.1824" y="-7.3" font-family="Times,serif" font-size="14.00" fill="#000000">id :INTEGER</text>
</g>
<!-- Property&#45;&gt;Reservation -->
<g id="edge3" class="edge">
<title>Property&#45;&gt;Reservation</title>
<path fill="none" stroke="#06e1cc" d="M456.3791,-301.6663C437.621,-259.7301 418.2544,-216.4335 401.8259,-179.7054"/>
<ellipse fill="none" stroke="#06e1cc" cx="458.1367" cy="-305.5956" rx="4" ry="4"/>
<polygon fill="#06e1cc" stroke="#06e1cc" points="401.7978,-179.6426 401.8224,-168.6767 399.7562,-175.0784 397.7146,-170.5141 397.7146,-170.5141 397.7146,-170.5141 399.7562,-175.0784 393.6068,-172.3516 401.7978,-179.6426 401.7978,-179.6426"/>
</g>
<!-- Review -->
<g id="node7" class="node">
<title>Review</title>
<path fill="none" stroke="#000000" d="M653.1824,-21.5C653.1824,-21.5 762.1931,-21.5 762.1931,-21.5 768.1931,-21.5 774.1931,-27.5 774.1931,-33.5 774.1931,-33.5 774.1931,-137.5 774.1931,-137.5 774.1931,-143.5 768.1931,-149.5 762.1931,-149.5 762.1931,-149.5 653.1824,-149.5 653.1824,-149.5 647.1824,-149.5 641.1824,-143.5 641.1824,-137.5 641.1824,-137.5 641.1824,-33.5 641.1824,-33.5 641.1824,-27.5 647.1824,-21.5 653.1824,-21.5"/>
<text text-anchor="middle" x="707.6877" y="-134.3" font-family="Times,serif" font-size="14.00" fill="#000000">Review</text>
<polyline fill="none" stroke="#000000" points="641.1824,-127.5 774.1931,-127.5 "/>
<text text-anchor="start" x="649.1824" y="-112.3" font-family="Times,serif" font-size="14.00" fill="#000000">property_id :integer</text>
<text text-anchor="start" x="649.1824" y="-98.3" font-family="Times,serif" font-size="14.00" fill="#000000">comment :text</text>
<text text-anchor="start" x="649.1824" y="-84.3" font-family="Times,serif" font-size="14.00" fill="#000000">star :integer</text>
<text text-anchor="start" x="649.1824" y="-70.3" font-family="Times,serif" font-size="14.00" fill="#000000">id :INTEGER</text>
<text text-anchor="start" x="649.1824" y="-56.3" font-family="Times,serif" font-size="14.00" fill="#000000">user_id :integer</text>
<text text-anchor="start" x="649.1824" y="-42.3" font-family="Times,serif" font-size="14.00" fill="#000000">created_at :datetime</text>
<text text-anchor="start" x="649.1824" y="-28.3" font-family="Times,serif" font-size="14.00" fill="#000000">updated_at :datetime</text>
</g>
<!-- Property&#45;&gt;Review -->
<g id="edge4" class="edge">
<title>Property&#45;&gt;Review</title>
<path fill="none" stroke="#2d7375" d="M611.0067,-301.6432C633.4182,-251.5395 656.6973,-199.4959 674.7956,-159.0347"/>
<ellipse fill="none" stroke="#2d7375" cx="609.2388" cy="-305.5956" rx="4" ry="4"/>
<polygon fill="#2d7375" stroke="#2d7375" points="674.8445,-158.9252 683.0355,-151.6342 676.8861,-154.361 678.9277,-149.7968 678.9277,-149.7968 678.9277,-149.7968 676.8861,-154.361 674.82,-147.9593 674.8445,-158.9252 674.8445,-158.9252"/>
</g>
<!-- User -->
<g id="node8" class="node">
<title>User</title>
<path fill="none" stroke="#000000" d="M443.4099,-778.5C443.4099,-778.5 623.9656,-778.5 623.9656,-778.5 629.9656,-778.5 635.9656,-784.5 635.9656,-790.5 635.9656,-790.5 635.9656,-1174.5 635.9656,-1174.5 635.9656,-1180.5 629.9656,-1186.5 623.9656,-1186.5 623.9656,-1186.5 443.4099,-1186.5 443.4099,-1186.5 437.4099,-1186.5 431.4099,-1180.5 431.4099,-1174.5 431.4099,-1174.5 431.4099,-790.5 431.4099,-790.5 431.4099,-784.5 437.4099,-778.5 443.4099,-778.5"/>
<text text-anchor="middle" x="533.6877" y="-1171.3" font-family="Times,serif" font-size="14.00" fill="#000000">User</text>
<polyline fill="none" stroke="#000000" points="431.4099,-1164.5 635.9656,-1164.5 "/>
<text text-anchor="start" x="439.4099" y="-1149.3" font-family="Times,serif" font-size="14.00" fill="#000000">gplus_link :varchar</text>
<text text-anchor="start" x="439.4099" y="-1135.3" font-family="Times,serif" font-size="14.00" fill="#000000">email :varchar</text>
<text text-anchor="start" x="439.4099" y="-1121.3" font-family="Times,serif" font-size="14.00" fill="#000000">encrypted_password :varchar</text>
<text text-anchor="start" x="439.4099" y="-1107.3" font-family="Times,serif" font-size="14.00" fill="#000000">reset_password_token :varchar</text>
<text text-anchor="start" x="439.4099" y="-1093.3" font-family="Times,serif" font-size="14.00" fill="#000000">reset_password_sent_at :datetime</text>
<text text-anchor="start" x="439.4099" y="-1079.3" font-family="Times,serif" font-size="14.00" fill="#000000">remember_created_at :datetime</text>
<text text-anchor="start" x="439.4099" y="-1065.3" font-family="Times,serif" font-size="14.00" fill="#000000">sign_in_count :integer</text>
<text text-anchor="start" x="439.4099" y="-1051.3" font-family="Times,serif" font-size="14.00" fill="#000000">current_sign_in_at :datetime</text>
<text text-anchor="start" x="439.4099" y="-1037.3" font-family="Times,serif" font-size="14.00" fill="#000000">last_sign_in_at :datetime</text>
<text text-anchor="start" x="439.4099" y="-1023.3" font-family="Times,serif" font-size="14.00" fill="#000000">current_sign_in_ip :varchar</text>
<text text-anchor="start" x="439.4099" y="-1009.3" font-family="Times,serif" font-size="14.00" fill="#000000">last_sign_in_ip :varchar</text>
<text text-anchor="start" x="439.4099" y="-995.3" font-family="Times,serif" font-size="14.00" fill="#000000">created_at :datetime</text>
<text text-anchor="start" x="439.4099" y="-981.3" font-family="Times,serif" font-size="14.00" fill="#000000">updated_at :datetime</text>
<text text-anchor="start" x="439.4099" y="-967.3" font-family="Times,serif" font-size="14.00" fill="#000000">fullname :varchar</text>
<text text-anchor="start" x="439.4099" y="-953.3" font-family="Times,serif" font-size="14.00" fill="#000000">confirmation_token :varchar</text>
<text text-anchor="start" x="439.4099" y="-939.3" font-family="Times,serif" font-size="14.00" fill="#000000">confirmed_at :datetime</text>
<text text-anchor="start" x="439.4099" y="-925.3" font-family="Times,serif" font-size="14.00" fill="#000000">confirmation_sent_at :datetime</text>
<text text-anchor="start" x="439.4099" y="-911.3" font-family="Times,serif" font-size="14.00" fill="#000000">provider :varchar</text>
<text text-anchor="start" x="439.4099" y="-897.3" font-family="Times,serif" font-size="14.00" fill="#000000">uid :varchar</text>
<text text-anchor="start" x="439.4099" y="-883.3" font-family="Times,serif" font-size="14.00" fill="#000000">image :varchar</text>
<text text-anchor="start" x="439.4099" y="-869.3" font-family="Times,serif" font-size="14.00" fill="#000000">phone_number :varchar</text>
<text text-anchor="start" x="439.4099" y="-855.3" font-family="Times,serif" font-size="14.00" fill="#000000">description :text</text>
<text text-anchor="start" x="439.4099" y="-841.3" font-family="Times,serif" font-size="14.00" fill="#000000">fb_link :varchar</text>
<text text-anchor="start" x="439.4099" y="-827.3" font-family="Times,serif" font-size="14.00" fill="#000000">twitter_link :varchar</text>
<text text-anchor="start" x="439.4099" y="-813.3" font-family="Times,serif" font-size="14.00" fill="#000000">lkdin_link :varchar</text>
<text text-anchor="start" x="439.4099" y="-799.3" font-family="Times,serif" font-size="14.00" fill="#000000">skype_link :varchar</text>
<text text-anchor="start" x="439.4099" y="-785.3" font-family="Times,serif" font-size="14.00" fill="#000000">id :INTEGER</text>
</g>
<!-- User&#45;&gt;Property -->
<g id="edge5" class="edge">
<title>User&#45;&gt;Property</title>
<path fill="none" stroke="#e15d04" d="M533.6877,-770.1652C533.6877,-764.1184 533.6877,-758.0391 533.6877,-751.9417"/>
<ellipse fill="none" stroke="#e15d04" cx="533.6878" cy="-774.4385" rx="4" ry="4"/>
<polygon fill="#e15d04" stroke="#e15d04" points="533.6878,-751.6655 538.1877,-741.6654 533.6878,-746.6655 533.6877,-741.6655 533.6877,-741.6655 533.6877,-741.6655 533.6878,-746.6655 529.1877,-741.6655 533.6878,-751.6655 533.6878,-751.6655"/>
</g>
<!-- User&#45;&gt;Reservation -->
<g id="edge6" class="edge">
<title>User&#45;&gt;Reservation</title>
<path fill="none" stroke="#23f4ac" d="M458.0524,-770.575C455.4116,-760.9627 452.9386,-751.4061 450.6877,-742 394.8236,-508.5495 409.7632,-444.7519 376.6877,-207 375.5043,-198.4932 374.2719,-189.6517 373.0353,-180.792"/>
<ellipse fill="none" stroke="#23f4ac" cx="459.1305" cy="-774.4412" rx="4" ry="4"/>
<polygon fill="#23f4ac" stroke="#23f4ac" points="373.0228,-180.7023 376.0965,-170.176 372.3313,-175.7503 371.6397,-170.7984 371.6397,-170.7984 371.6397,-170.7984 372.3313,-175.7503 367.183,-171.4208 373.0228,-180.7023 373.0228,-180.7023"/>
</g>
<!-- User&#45;&gt;Review -->
<g id="edge7" class="edge">
<title>User&#45;&gt;Review</title>
<path fill="none" stroke="#98ab47" d="M609.3197,-770.5742C611.9613,-760.9621 614.4355,-751.4058 616.6877,-742 666.4669,-534.1113 691.9207,-282.2167 702.1393,-159.6661"/>
<ellipse fill="none" stroke="#98ab47" cx="608.2412" cy="-774.4403" rx="4" ry="4"/>
<polygon fill="#98ab47" stroke="#98ab47" points="702.1441,-159.6073 707.45,-150.0105 702.5547,-154.6241 702.9652,-149.641 702.9652,-149.641 702.9652,-149.641 702.5547,-154.6241 698.4804,-149.2715 702.1441,-159.6073 702.1441,-159.6073"/>
</g>
</g>
</svg>
